<?xml version="1.0" encoding="UTF-8"?>
<svg width="36px" height="43px" viewBox="0 0 36 43" version="1.1" xmlns="http://www.w3.org/2000/svg" xmlns:xlink="http://www.w3.org/1999/xlink">
    <!-- Generator: Sketch 61 (89581) - https://sketch.com -->
    <title>Group 5</title>
    <desc>Created with Sketch.</desc>
    <defs>
        <polygon id="path-1" points="5.38706965e-05 0.0371415344 35.9954295 0.0371415344 35.9954295 43 5.38706965e-05 43"></polygon>
    </defs>
    <g id="Page-1" stroke="none" stroke-width="1" fill="none" fill-rule="evenodd">
        <g id="Artboard-Copy-3" transform="translate(-56.000000, -56.000000)">
            <g id="Group-6" transform="translate(56.000000, 56.000000)">
                <g id="Group-5">
                    <mask id="mask-2" fill="white">
                        <use xlink:href="#path-1"></use>
                    </mask>
                    <g id="Clip-4"></g>
                    <path d="M12.3891461,26.0337926 L17.6948577,26.0325413 L17.6948577,29.7964632 C17.690005,31.2448693 17.1319486,32.605114 16.123215,33.6269897 C15.1182621,34.6451114 13.7822558,35.2079222 12.3607636,35.2120175 C12.3301241,35.2120175 12.297284,35.2125862 12.2645003,35.2132688 L12.2571649,35.2134394 C11.2982558,35.2110505 10.3910897,34.8348574 9.70189843,34.1536828 C9.01310219,33.4737026 8.61851285,32.5645029 8.58821191,31.590405 L8.58821191,29.7415188 C8.65789843,28.7569553 9.08222445,27.8380294 9.78574796,27.1498587 C10.4906257,26.4604368 11.4143248,26.0646775 12.3891461,26.0337926 L12.3891461,26.0337926 Z M13.806632,17.3738997 C12.1233781,17.3713402 10.7505818,15.9552979 10.7464063,14.2172106 L10.7461806,14.1181854 L10.7373781,14.0195016 L10.7373781,14.0191034 L10.7371524,14.0166008 C10.7334282,13.9755347 10.6514972,12.9999579 11.0105379,11.9556722 C11.4423687,10.7000836 12.2919799,9.95321455 13.6845254,9.60534683 C14.3960614,9.42777275 15.1263875,9.33767751 15.8544564,9.33767751 C16.4529141,9.33767751 17.0688639,9.39865106 17.6948577,9.51946058 L17.6948577,10.2932899 L17.6948577,17.3738997 L13.806632,17.3738997 Z M15.317052,0.0371074074 L15.3128201,0.0371074074 C13.80161,0.0371074074 12.1714533,0.413698677 10.5985693,1.12632698 C9.08696426,1.8111418 7.62123386,2.80912857 6.3598232,4.0122754 C5.04288903,5.26695397 4.00159749,6.66257698 3.2659674,8.15950026 C2.49354734,9.7312754 2.10194859,11.3239249 2.10194859,12.8930836 L2.10194859,13.5045823 C2.09805517,16.2407132 3.03366019,18.8677516 4.69067586,20.9546167 C3.6664815,21.7327688 2.76992351,22.6811008 2.03474483,23.7724249 C0.699584953,25.7588429 -0.00354357367,28.0752119 5.38706965e-05,30.4730307 L5.38706965e-05,31.0843019 C0.0035661442,34.2558931 1.2214721,37.2396722 3.42937806,39.4885836 C5.64213668,41.7405664 8.5856163,42.9873389 11.7182934,43.0000228 L11.7228075,43.0000228 L11.7273216,43.0000228 C19.9044564,43.0000228 26.5570646,36.254995 26.5570646,27.9642423 L26.5570646,26.0323706 L28.9522495,26.0323706 L30.4192213,26.0323706 L31.0148577,24.6810558 C31.1006821,24.4863045 31.1211085,24.4400056 32.492889,19.5288481 L33.5248702,15.8344315 L29.8142182,16.6950571 C28.497679,17.0004368 27.1519674,17.1685122 26.0813342,17.2609394 L26.0813342,13.8419844 C26.0813342,13.0603058 25.8849141,12.306782 25.5280176,11.643069 C26.9389016,11.8862238 28.1676414,12.0901325 29.3183436,12.0901325 C30.6569455,12.0901325 31.8074219,11.8040915 32.8356226,11.2157992 C33.4591335,10.8591153 33.6938107,10.364331 33.8652339,10.0029831 C33.9225066,9.8822873 34.0177542,9.67820794 34.146237,9.39154127 C34.3441806,8.95005185 34.642958,8.26301878 34.9426382,7.49783492 C36.0475223,4.67678466 36.1198608,3.51026746 35.8885129,2.62666296 C35.58161,1.45485608 34.5839925,0.667546561 33.4059799,0.667546561 C33.1189392,0.667546561 32.8268765,0.714755556 32.5379737,0.807865344 C31.3119423,1.20470529 29.9366633,1.35241825 28.5174846,1.48045132 C28.0799549,1.52020926 27.6636414,1.53937725 27.243773,1.53937725 C25.7746006,1.53937725 24.4697417,1.29730317 22.8176351,0.990785979 C21.0719172,0.666920899 18.8992777,0.263824339 15.9094157,0.0556497354 L15.9012903,0.0550809524 L15.8932213,0.0545690476 C15.7076915,0.042965873 15.5138107,0.0371074074 15.317052,0.0371074074 L15.317052,0.0371074074 Z M15.3128201,2.31223968 L15.317052,2.31223968 C15.4655097,2.31223968 15.6140238,2.31661931 15.7538483,2.32537857 C21.41719,2.71971587 23.8566132,3.81450952 27.243773,3.81450952 C27.713353,3.81450952 28.2014972,3.79340767 28.7187009,3.74653995 C30.2324502,3.60997513 31.770632,3.44576746 33.2253592,2.97492884 C33.292958,2.95314444 33.3529956,2.94267884 33.4059799,2.94267884 C34.7027135,2.94267884 31.759121,9.21561667 31.7213718,9.23717354 C30.9857417,9.65812989 30.2114031,9.81500026 29.3183436,9.81500026 C28.2179737,9.81500026 26.9376602,9.57668016 25.3293969,9.30076349 C23.2547699,8.94470529 21.3200803,8.15125291 19.3075223,7.57137857 C18.1597542,7.2398918 17.0096727,7.06254524 15.8544564,7.06254524 C14.9536665,7.06254524 14.0498295,7.17032963 13.1415912,7.39704656 C7.97609906,8.68744471 8.47344075,14.0439593 8.48935298,14.2227278 C8.49657555,17.2119672 10.8796288,19.6446524 13.8033028,19.649032 L18.1952464,19.649032 L18.1952464,23.7572384 L12.3573781,23.7587172 C10.8046947,23.7979063 9.33264451,24.4228283 8.21399248,25.5170532 C7.09669467,26.6098561 6.4277605,28.0747 6.33262571,29.6442 L6.33115862,29.6485228 L6.33115862,31.6219725 C6.37009279,33.2001749 7.0059047,34.676622 8.121679,35.7781272 C9.23756614,36.8811683 10.7080364,37.4886286 12.2664188,37.4886286 C12.2967762,37.4886286 12.3313655,37.4871497 12.3616665,37.4871497 C14.3872025,37.4827701 16.2915912,36.6820942 17.7231273,35.2317542 C19.1547197,33.7814712 19.9462119,31.853069 19.951911,29.7997053 L19.951911,10.2932899 L22.6363937,11.8017026 C23.3701053,12.2129897 23.8242809,12.994782 23.8242809,13.8419844 L23.8242809,19.649032 L23.9453718,19.649032 C23.9828389,19.649032 27.1876288,19.6387939 30.3203624,18.9122304 C30.3203624,18.9122304 28.9925379,23.6658349 28.9522495,23.7572384 L24.3000113,23.7572384 L24.3000113,27.9642423 C24.3000113,35.0006577 18.6587887,40.7248905 11.7273216,40.7248905 C9.19722132,40.7146524 6.81992351,39.7062 5.03369154,37.8881987 C3.24740313,36.0688323 2.25994232,33.6535519 2.25710972,31.0843019 L2.25710972,30.4695611 C2.25418683,28.5281339 2.82358495,26.6549606 3.90194859,25.0505942 C4.98177931,23.4476497 6.49265078,22.2241405 8.27453793,21.5163468 L8.48066332,21.4350108 L8.30049404,21.3042476 C5.82806144,19.5095095 4.35465705,16.5943825 4.35900188,13.5077106 L4.35900188,12.8930836 C4.35900188,10.4502172 5.65364765,7.81555714 7.91120878,5.66481772 C10.1114408,3.56606508 12.8774031,2.31223968 15.3128201,2.31223968 L15.3128201,2.31223968 Z" id="Fill-3" fill="#F2F2F2" mask="url(#mask-2)"></path>
                </g>
            </g>
        </g>
    </g>
</svg>